<svg xmlns="http://www.w3.org/2000/svg" width="141.586" height="37.15" viewBox="0 0 141.586 37.15">
  <g id="Сгруппировать_23996" data-name="Сгруппировать 23996" transform="translate(-196.062 -134.03)">
    <path id="Контур_10911" data-name="Контур 10911" d="M196.062,147.937v-2.5c0-3.028,2.094-4.931,5.12-4.931h10.242v2.651a.414.414,0,0,1-.413.41h-9.829a1.637,1.637,0,0,0-1.868,1.835v1.083a.472.472,0,0,0,.335.407l11.547,2.732a1.242,1.242,0,0,1,1.012,1.233v3.325c0,3.253-2.319,5.008-5.345,5.008H196.284v-2.651a.415.415,0,0,1,.412-.412h10.167a2.078,2.078,0,0,0,2.316-1.945V152.42a.4.4,0,0,0-.335-.371l-11.735-2.878a1.278,1.278,0,0,1-1.047-1.235" transform="translate(0 2.873)" fill="#2dc30a"/>
    <path id="Контур_10912" data-name="Контур 10912" d="M220.972,159.187h-4.3a3.246,3.246,0,0,1-2.538-1.2v9.9a.416.416,0,0,1-.412.413h-2.837V141.659a1.17,1.17,0,0,1,1.194-1.157h8.895c2.992,0,5.457,1.567,5.457,5.269v8.148a5.236,5.236,0,0,1-5.457,5.268m2.208-13.416a1.955,1.955,0,0,0-2.208-2.208h-6.43a.418.418,0,0,0-.41.413v10.2a2.071,2.071,0,0,0,1.8,1.906h5.044a2.211,2.211,0,0,0,2.208-2.206Z" transform="translate(6.58 2.873)" fill="#2dc30a"/>
    <path id="Контур_10913" data-name="Контур 10913" d="M252.818,134.442,241.671,162.06h-2.84a.414.414,0,0,1-.411-.412l11.147-27.618h2.839a.413.413,0,0,1,.413.412" transform="translate(18.804 0)" fill="#2dc30a"/>
    <path id="Контур_10914" data-name="Контур 10914" d="M240.292,156.491a.411.411,0,0,0-.409-.406h-9.267a2.187,2.187,0,0,1-2.208-2.206v-3.324a1.788,1.788,0,0,0,1.46.71h10.24c.9,0,.972-.524.972-1.159v-4.3c0-3.476-2.429-5.305-5.458-5.305h-5.006c-3.027,0-5.458,1.829-5.458,5.305v7.926a5.44,5.44,0,0,0,5.458,5.454h8.59Zm-11.884-10.72a2.043,2.043,0,0,1,2.208-2.208h5.119a1.918,1.918,0,0,1,2.166,2.208v2.019a.415.415,0,0,1-.407.41h-8.71a.411.411,0,0,1-.375-.41Z" transform="translate(12.917 2.873)" fill="#2dc30a"/>
    <path id="Контур_10915" data-name="Контур 10915" d="M259.517,134.442,248.369,162.06h-2.84a.416.416,0,0,1-.414-.412l11.15-27.618h2.842a.416.416,0,0,1,.412.412" transform="translate(21.777 0)" fill="#0090df"/>
    <path id="Контур_10916" data-name="Контур 10916" d="M284.472,148.831v7.774a5.462,5.462,0,0,1-5.458,5.455H270.12a1.18,1.18,0,0,1-1.2-1.2V134.031h2.84a.414.414,0,0,1,.412.412v10.129a3.134,3.134,0,0,1,2.541-1.2h4.3a5.464,5.464,0,0,1,5.458,5.457m-3.25-.15a2.19,2.19,0,0,0-2.208-2.206h-5.045a2.04,2.04,0,0,0-1.793,1.907v10.2a.384.384,0,0,0,.41.374h6.428a2.188,2.188,0,0,0,2.208-2.2Z" transform="translate(32.347 0)" fill="#0090df"/>
    <path id="Контур_10917" data-name="Контур 10917" d="M282.935,147.937v-2.5c0-3.028,2.089-4.931,5.12-4.931H298.3v2.651a.416.416,0,0,1-.414.41h-9.828a1.638,1.638,0,0,0-1.87,1.835v1.083a.473.473,0,0,0,.336.407l11.547,2.732a1.242,1.242,0,0,1,1.012,1.233v3.325c0,3.253-2.319,5.008-5.345,5.008H283.157v-2.651a.414.414,0,0,1,.411-.412h10.167a2.078,2.078,0,0,0,2.316-1.945V152.42a.4.4,0,0,0-.335-.371l-11.735-2.878a1.279,1.279,0,0,1-1.047-1.235" transform="translate(38.567 2.873)" fill="#0090df"/>
    <path id="Контур_10918" data-name="Контур 10918" d="M264.312,140.5H257.5l-1.032,2.553v.1a.414.414,0,0,0,.41.41h7.435a2.113,2.113,0,0,1,2.248,2.208v.934a.415.415,0,0,1-.412.409H259.83a5.441,5.441,0,0,0-5.455,5.46v1.159a5.436,5.436,0,0,0,5.455,5.454h8.746a1.178,1.178,0,0,0,1.194-1.2V145.731c0-3.4-2.427-5.229-5.458-5.229m2.248,15.1a.386.386,0,0,1-.375.41H259.83a2.184,2.184,0,0,1-2.2-2.2v-1.385a2.185,2.185,0,0,1,2.2-2.2h5.757a1.208,1.208,0,0,0,.973-.559Z" transform="translate(25.888 2.873)" fill="#0090df"/>
  </g>
</svg>
